<svg xmlns="http://www.w3.org/2000/svg" viewBox="0 0 546.89 846.48"><defs><style>.a,.b,.c{fill:none;stroke-miterlimit:10;}.a,.c{stroke:#231815;}.a{stroke-width:12px;}.b{stroke:#c30d23;}.b,.c{stroke-width:8px;}.d{fill:#231815;}</style></defs><title>zhihu-answer-index</title><polyline class="a" points="168.15 657.27 152.55 840.48 190.48 840.48"/><polyline class="a" points="333.83 657.27 323.24 840.48 361.17 840.48"/><path class="a" d="M50.66,442.44C23.24,442.21,6,464.62,6,499.1s10,34.48,35.16,50"/><path class="a" d="M56.17,383.59c3.94-180,11.9-355.17,27.41-355.17s34.48,43.1,55.17,44.83c30.11,2.51,135.91,21.43,193.1-10.34C393.93,28.41,378.41,6,393.93,6s84.48,275.86,41.38,593.1c-51.72,96.55-326.15,72.51-371.4,15.52"/><path class="b" d="M83.59,28.41"/><path class="a" d="M63.91,614.62c-44.11-106.9-11.08-127.71-7.74-231"/><path class="b" d="M83.59,28.41"/><path class="b" d="M56.17,383.59"/><path class="c" d="M212.9,162.9H386.44s32-3.45,62.84-20.69c49.82-19,67.06,0,86,48.28s0,75.86-31,91.38-117.83,20.56-117.83,20.56H119"/><path class="d" d="M445.66,295.66h0s27.59,1.72,58.62-13.79,50-43.1,31-91.38-36.21-67.24-86-48.28c-30.86,17.24-19.14,6.9-19.14,6.9h0C390.48,180.14,402.68,273.24,445.66,295.66Z"/><line class="c" x1="119.01" y1="211.17" x2="386.44" y2="211.17"/><line class="c" x1="119.01" y1="254.15" x2="386.44" y2="254.15"/><line class="c" x1="119.01" y1="345.39" x2="386.44" y2="345.39"/><line class="c" x1="119.01" y1="393.67" x2="386.44" y2="393.67"/><line class="c" x1="119.01" y1="436.64" x2="386.44" y2="436.64"/><line class="c" x1="119.01" y1="484.92" x2="386.44" y2="484.92"/><line class="c" x1="119.01" y1="530.27" x2="386.44" y2="530.27"/><line class="c" x1="119.01" y1="578.54" x2="386.44" y2="578.54"/><circle class="d" cx="152.55" cy="161.17" r="18.97"/></svg>